# xmcd
#
# Track frame offsets: 
#        171
#        18713
#        33440
#        63971
#        87646
#        112039
#        146493
#        168652
#        195951
#        222140
#
# Disc length: 3220 seconds
#
# Revision: 3
# Processed by: cddbd v1.5.2PL0 Copyright (c) Steve Scherf et al.
# Submitted via: ExactAudioCopy v0.99pb5
#
DISCID=8d0c920a
DTITLE=The Weeknd - Trilogy [CDOne: House of Balloons)
DYEAR=2012
DGENRE=R&B
TTITLE0=High for This
TTITLE1=What You Need
TTITLE2=House of Balloon-Glass Table Girls
TTITLE3=The Morning
TTITLE4=Wicked Games
TTITLE5=The Party and the After Party
TTITLE6=Coming Down
TTITLE7=Loft Music
TTITLE8=The Knowing
TTITLE9=Twenty Eight
EXTD=
EXTT0=
EXTT1=
EXTT2=
EXTT3=
EXTT4=
EXTT5=
EXTT6=
EXTT7=
EXTT8=
EXTT9=
PLAYORDER=
